<mxfile host="app.diagrams.net" modified="2024-05-23T20:27:53.695Z" agent="Mozilla/5.0 (Windows NT 10.0; Win64; x64) AppleWebKit/537.36 (KHTML, like Gecko) Chrome/125.0.0.0 Safari/537.36 Edg/125.0.0.0" etag="xwKnJMiXgfA0Fn6kXElq" version="24.4.0" type="device">
  <diagram name="Página-1" id="EQT6mkqfsKpfmT6XrE-N">
    <mxGraphModel dx="996" dy="456" grid="1" gridSize="10" guides="1" tooltips="1" connect="1" arrows="1" fold="1" page="1" pageScale="1" pageWidth="827" pageHeight="1169" math="0" shadow="0">
      <root>
        <mxCell id="0" />
        <mxCell id="1" parent="0" />
        <mxCell id="sRvNxMIeEX6gMQWpNpkh-15" value="Anuncio y reclutamiento&amp;nbsp;" style="shape=step;perimeter=stepPerimeter;whiteSpace=wrap;html=1;fixedSize=1;" vertex="1" parent="1">
          <mxGeometry y="40" width="120" height="80" as="geometry" />
        </mxCell>
        <mxCell id="sRvNxMIeEX6gMQWpNpkh-16" value="Pruebas y evaluaciones: candidatos sometidos a pruebas" style="shape=step;perimeter=stepPerimeter;whiteSpace=wrap;html=1;fixedSize=1;" vertex="1" parent="1">
          <mxGeometry x="530" y="40" width="130" height="80" as="geometry" />
        </mxCell>
        <mxCell id="sRvNxMIeEX6gMQWpNpkh-17" value="Evaluación de referencias laborales:&amp;nbsp;&lt;div&gt;Obtener&amp;nbsp;&lt;/div&gt;&lt;div&gt;información&amp;nbsp;&lt;span style=&quot;background-color: initial;&quot;&gt;sobre su desempeño anterior&lt;/span&gt;&lt;/div&gt;" style="shape=step;perimeter=stepPerimeter;whiteSpace=wrap;html=1;fixedSize=1;" vertex="1" parent="1">
          <mxGeometry x="360" y="40" width="170" height="80" as="geometry" />
        </mxCell>
        <mxCell id="sRvNxMIeEX6gMQWpNpkh-18" value="Entrevistas telefónicas a los candidatos&amp;nbsp;" style="shape=step;perimeter=stepPerimeter;whiteSpace=wrap;html=1;fixedSize=1;" vertex="1" parent="1">
          <mxGeometry x="240" y="40" width="120" height="80" as="geometry" />
        </mxCell>
        <mxCell id="sRvNxMIeEX6gMQWpNpkh-19" value="Selección de curriculums" style="shape=step;perimeter=stepPerimeter;whiteSpace=wrap;html=1;fixedSize=1;" vertex="1" parent="1">
          <mxGeometry x="120" y="40" width="120" height="80" as="geometry" />
        </mxCell>
        <mxCell id="sRvNxMIeEX6gMQWpNpkh-21" value="Proceso de incorporación una vez haya aceptado la oferta" style="shape=step;perimeter=stepPerimeter;whiteSpace=wrap;html=1;fixedSize=1;" vertex="1" parent="1">
          <mxGeometry x="780" y="40" width="140" height="80" as="geometry" />
        </mxCell>
        <mxCell id="sRvNxMIeEX6gMQWpNpkh-22" value="Toma de&amp;nbsp;&lt;div&gt;&lt;span style=&quot;background-color: initial;&quot;&gt;desiciones&amp;nbsp;&lt;/span&gt;&lt;/div&gt;&lt;div&gt;&lt;span style=&quot;background-color: initial;&quot;&gt;y ofertas&lt;/span&gt;&lt;br&gt;&lt;/div&gt;" style="shape=step;perimeter=stepPerimeter;whiteSpace=wrap;html=1;fixedSize=1;" vertex="1" parent="1">
          <mxGeometry x="657" y="40" width="123" height="80" as="geometry" />
        </mxCell>
      </root>
    </mxGraphModel>
  </diagram>
</mxfile>
